<svg xmlns="http://www.w3.org/2000/svg" viewBox="0 0 120 120" width="120" height="120">
  <!-- Background circle -->
  <circle cx="60" cy="60" r="58" fill="#1a3a5c" stroke="#4a9fd4" stroke-width="2"/>
  <!-- Ground layers -->
  <rect x="15" y="52" width="90" height="12" rx="2" fill="#c4a35a" opacity="0.9"/>
  <rect x="15" y="66" width="90" height="12" rx="2" fill="#8b6914" opacity="0.9"/>
  <rect x="15" y="80" width="90" height="16" rx="2" fill="#5a4010" opacity="0.9"/>
  <!-- Surface line -->
  <line x1="15" y1="52" x2="105" y2="52" stroke="#e0e0e0" stroke-width="1.5"/>
  <!-- Electrodes -->
  <line x1="28" y1="40" x2="28" y2="54" stroke="#e05252" stroke-width="2"/>
  <polygon points="28,38 24,44 32,44" fill="#e05252"/>
  <line x1="48" y1="44" x2="48" y2="54" stroke="#4a9fd4" stroke-width="2"/>
  <polygon points="48,42 44,48 52,48" fill="#4a9fd4"/>
  <line x1="68" y1="44" x2="68" y2="54" stroke="#4a9fd4" stroke-width="2"/>
  <polygon points="68,42 64,48 72,48" fill="#4a9fd4"/>
  <line x1="88" y1="40" x2="88" y2="54" stroke="#e05252" stroke-width="2"/>
  <polygon points="88,38 84,44 92,44" fill="#e05252"/>
  <!-- Current flow arc -->
  <path d="M 28 50 Q 58 25 88 50" fill="none" stroke="#ffb347" stroke-width="1.5" stroke-dasharray="4,3" opacity="0.8"/>
  <!-- Labels -->
  <text x="60" y="18" text-anchor="middle" fill="#ffffff" font-family="Arial" font-size="9" font-weight="bold">GEOPHYSICS</text>
  <text x="60" y="112" text-anchor="middle" fill="#4a9fd4" font-family="Arial" font-size="7">resipy · emagpy</text>
</svg>
